{
    "asset" : {
        "generator" : "Khronos glTF Blender I/O v3.4.50",
        "version" : "2.0"
    },
    "scene" : 0,
    "scenes" : [
        {
            "name" : "Scene",
            "nodes" : [
                4
            ]
        }
    ],
    "nodes" : [
        {
            "mesh" : 0,
            "name" : "Mesh_2371.rip.003",
            "translation" : [
                1.0999999046325684,
                -0.5716522336006165,
                2.45278263092041
            ]
        },
        {
            "mesh" : 1,
            "name" : "Mesh_2371.rip.005",
            "rotation" : [
                0,
                -1,
                0,
                1.9470718370939721e-07
            ],
            "translation" : [
                -1.0999999046325684,
                -0.5716522336006165,
                2.45278263092041
            ]
        },
        {
            "mesh" : 2,
            "name" : "Mesh_2373.rip.003",
            "translation" : [
                1,
                -0.34844571352005005,
                -2
            ]
        },
        {
            "mesh" : 3,
            "name" : "Mesh_2373.rip.005",
            "rotation" : [
                0,
                1,
                0,
                7.549790126404332e-08
            ],
            "translation" : [
                -1,
                -0.34844571352005005,
                -2
            ]
        },
        {
            "children" : [
                0,
                1,
                2,
                3
            ],
            "mesh" : 4,
            "name" : "Battle Spec.002"
        }
    ],
    "meshes" : [
        {
            "name" : "Mesh_2371.rip.003",
            "primitives" : [
                {
                    "attributes" : {
                        "POSITION" : 0,
                        "TEXCOORD_0" : 1,
                        "NORMAL" : 2
                    },
                    "indices" : 3
                },
                {
                    "attributes" : {
                        "POSITION" : 4,
                        "TEXCOORD_0" : 5,
                        "NORMAL" : 6
                    },
                    "indices" : 7
                }
            ]
        },
        {
            "name" : "Mesh_2371.rip.005",
            "primitives" : [
                {
                    "attributes" : {
                        "POSITION" : 8,
                        "TEXCOORD_0" : 9,
                        "NORMAL" : 10
                    },
                    "indices" : 11
                },
                {
                    "attributes" : {
                        "POSITION" : 12,
                        "TEXCOORD_0" : 13,
                        "NORMAL" : 14
                    },
                    "indices" : 7
                }
            ]
        },
        {
            "name" : "Mesh_2373.rip.003",
            "primitives" : [
                {
                    "attributes" : {
                        "POSITION" : 15,
                        "TEXCOORD_0" : 16,
                        "NORMAL" : 17
                    },
                    "indices" : 18
                },
                {
                    "attributes" : {
                        "POSITION" : 19,
                        "TEXCOORD_0" : 20,
                        "NORMAL" : 21
                    },
                    "indices" : 22
                }
            ]
        },
        {
            "name" : "Mesh_2373.rip.005",
            "primitives" : [
                {
                    "attributes" : {
                        "POSITION" : 23,
                        "TEXCOORD_0" : 24,
                        "NORMAL" : 25
                    },
                    "indices" : 26
                },
                {
                    "attributes" : {
                        "POSITION" : 27,
                        "TEXCOORD_0" : 28,
                        "NORMAL" : 29
                    },
                    "indices" : 22
                }
            ]
        },
        {
            "name" : "Mesh_2406.rip.002",
            "primitives" : [
                {
                    "attributes" : {
                        "POSITION" : 30,
                        "TEXCOORD_0" : 31,
                        "TEXCOORD_1" : 32,
                        "NORMAL" : 33
                    },
                    "indices" : 34
                },
                {
                    "attributes" : {
                        "POSITION" : 35,
                        "TEXCOORD_0" : 36,
                        "TEXCOORD_1" : 37,
                        "NORMAL" : 38
                    },
                    "indices" : 39
                },
                {
                    "attributes" : {
                        "POSITION" : 40,
                        "TEXCOORD_0" : 41,
                        "TEXCOORD_1" : 42,
                        "NORMAL" : 43
                    },
                    "indices" : 44
                }
            ]
        }
    ],
    "accessors" : [
        {
            "bufferView" : 0,
            "componentType" : 5126,
            "count" : 1969,
            "max" : [
                0.2667716145515442,
                0.4717658758163452,
                0.47176578640937805
            ],
            "min" : [
                -0.266771525144577,
                -0.47176554799079895,
                -0.47176575660705566
            ],
            "type" : "VEC3"
        },
        {
            "bufferView" : 1,
            "componentType" : 5126,
            "count" : 1969,
            "type" : "VEC2"
        },
        {
            "bufferView" : 2,
            "componentType" : 5126,
            "count" : 1969,
            "type" : "VEC3"
        },
        {
            "bufferView" : 3,
            "componentType" : 5123,
            "count" : 4371,
            "type" : "SCALAR"
        },
        {
            "bufferView" : 4,
            "componentType" : 5126,
            "count" : 324,
            "max" : [
                0.24589116871356964,
                0.5872161388397217,
                0.5872160792350769
            ],
            "min" : [
                -0.18609672784805298,
                -0.5872160792350769,
                -0.5872160792350769
            ],
            "type" : "VEC3"
        },
        {
            "bufferView" : 5,
            "componentType" : 5126,
            "count" : 324,
            "type" : "VEC2"
        },
        {
            "bufferView" : 6,
            "componentType" : 5126,
            "count" : 324,
            "type" : "VEC3"
        },
        {
            "bufferView" : 7,
            "componentType" : 5123,
            "count" : 1296,
            "type" : "SCALAR"
        },
        {
            "bufferView" : 8,
            "componentType" : 5126,
            "count" : 1969,
            "max" : [
                0.2667716145515442,
                0.4717658758163452,
                0.47176578640937805
            ],
            "min" : [
                -0.266771525144577,
                -0.47176554799079895,
                -0.47176575660705566
            ],
            "type" : "VEC3"
        },
        {
            "bufferView" : 9,
            "componentType" : 5126,
            "count" : 1969,
            "type" : "VEC2"
        },
        {
            "bufferView" : 10,
            "componentType" : 5126,
            "count" : 1969,
            "type" : "VEC3"
        },
        {
            "bufferView" : 11,
            "componentType" : 5123,
            "count" : 4371,
            "type" : "SCALAR"
        },
        {
            "bufferView" : 12,
            "componentType" : 5126,
            "count" : 324,
            "max" : [
                0.24589119851589203,
                0.5872161388397217,
                0.5872161388397217
            ],
            "min" : [
                -0.18609675765037537,
                -0.5872160792350769,
                -0.5872161388397217
            ],
            "type" : "VEC3"
        },
        {
            "bufferView" : 13,
            "componentType" : 5126,
            "count" : 324,
            "type" : "VEC2"
        },
        {
            "bufferView" : 14,
            "componentType" : 5126,
            "count" : 324,
            "type" : "VEC3"
        },
        {
            "bufferView" : 15,
            "componentType" : 5126,
            "count" : 1973,
            "max" : [
                0.4021582007408142,
                0.6515087485313416,
                0.6515085697174072
            ],
            "min" : [
                -0.40215805172920227,
                -0.6515082716941833,
                -0.6515085101127625
            ],
            "type" : "VEC3"
        },
        {
            "bufferView" : 16,
            "componentType" : 5126,
            "count" : 1973,
            "type" : "VEC2"
        },
        {
            "bufferView" : 17,
            "componentType" : 5126,
            "count" : 1973,
            "type" : "VEC3"
        },
        {
            "bufferView" : 18,
            "componentType" : 5123,
            "count" : 4371,
            "type" : "SCALAR"
        },
        {
            "bufferView" : 19,
            "componentType" : 5126,
            "count" : 360,
            "max" : [
                0.37068092823028564,
                0.810945451259613,
                0.810945451259613
            ],
            "min" : [
                -0.2805408239364624,
                -0.8109455108642578,
                -0.810945451259613
            ],
            "type" : "VEC3"
        },
        {
            "bufferView" : 20,
            "componentType" : 5126,
            "count" : 360,
            "type" : "VEC2"
        },
        {
            "bufferView" : 21,
            "componentType" : 5126,
            "count" : 360,
            "type" : "VEC3"
        },
        {
            "bufferView" : 22,
            "componentType" : 5123,
            "count" : 1296,
            "type" : "SCALAR"
        },
        {
            "bufferView" : 23,
            "componentType" : 5126,
            "count" : 1973,
            "max" : [
                0.4021582007408142,
                0.6515087485313416,
                0.6515085697174072
            ],
            "min" : [
                -0.40215805172920227,
                -0.6515082716941833,
                -0.6515085101127625
            ],
            "type" : "VEC3"
        },
        {
            "bufferView" : 24,
            "componentType" : 5126,
            "count" : 1973,
            "type" : "VEC2"
        },
        {
            "bufferView" : 25,
            "componentType" : 5126,
            "count" : 1973,
            "type" : "VEC3"
        },
        {
            "bufferView" : 26,
            "componentType" : 5123,
            "count" : 4371,
            "type" : "SCALAR"
        },
        {
            "bufferView" : 27,
            "componentType" : 5126,
            "count" : 360,
            "max" : [
                0.37068095803260803,
                0.810945451259613,
                0.8109455704689026
            ],
            "min" : [
                -0.2805408537387848,
                -0.8109455108642578,
                -0.8109453320503235
            ],
            "type" : "VEC3"
        },
        {
            "bufferView" : 28,
            "componentType" : 5126,
            "count" : 360,
            "type" : "VEC2"
        },
        {
            "bufferView" : 29,
            "componentType" : 5126,
            "count" : 360,
            "type" : "VEC3"
        },
        {
            "bufferView" : 30,
            "componentType" : 5126,
            "count" : 39519,
            "max" : [
                1.3801363706588745,
                1.129656434059143,
                3.616466760635376
            ],
            "min" : [
                -1.3801363706588745,
                -0.7803983092308044,
                -3.627598524093628
            ],
            "type" : "VEC3"
        },
        {
            "bufferView" : 31,
            "componentType" : 5126,
            "count" : 39519,
            "type" : "VEC2"
        },
        {
            "bufferView" : 32,
            "componentType" : 5126,
            "count" : 39519,
            "type" : "VEC2"
        },
        {
            "bufferView" : 33,
            "componentType" : 5126,
            "count" : 39519,
            "type" : "VEC3"
        },
        {
            "bufferView" : 34,
            "componentType" : 5123,
            "count" : 171807,
            "type" : "SCALAR"
        },
        {
            "bufferView" : 35,
            "componentType" : 5126,
            "count" : 12982,
            "max" : [
                1.2916885614395142,
                0.627016544342041,
                3.603790044784546
            ],
            "min" : [
                -1.3092100620269775,
                -0.9837912321090698,
                -3.1720244884490967
            ],
            "type" : "VEC3"
        },
        {
            "bufferView" : 36,
            "componentType" : 5126,
            "count" : 12982,
            "type" : "VEC2"
        },
        {
            "bufferView" : 37,
            "componentType" : 5126,
            "count" : 12982,
            "type" : "VEC2"
        },
        {
            "bufferView" : 38,
            "componentType" : 5126,
            "count" : 12982,
            "type" : "VEC3"
        },
        {
            "bufferView" : 39,
            "componentType" : 5123,
            "count" : 60156,
            "type" : "SCALAR"
        },
        {
            "bufferView" : 40,
            "componentType" : 5126,
            "count" : 1786,
            "max" : [
                0.963150143623352,
                0.35228776931762695,
                3.1827566623687744
            ],
            "min" : [
                -0.9631502032279968,
                -0.13895010948181152,
                -3.1850059032440186
            ],
            "type" : "VEC3"
        },
        {
            "bufferView" : 41,
            "componentType" : 5126,
            "count" : 1786,
            "type" : "VEC2"
        },
        {
            "bufferView" : 42,
            "componentType" : 5126,
            "count" : 1786,
            "type" : "VEC2"
        },
        {
            "bufferView" : 43,
            "componentType" : 5126,
            "count" : 1786,
            "type" : "VEC3"
        },
        {
            "bufferView" : 44,
            "componentType" : 5123,
            "count" : 8682,
            "type" : "SCALAR"
        }
    ],
    "bufferViews" : [
        {
            "buffer" : 0,
            "byteLength" : 23628,
            "byteOffset" : 0,
            "target" : 34962
        },
        {
            "buffer" : 0,
            "byteLength" : 15752,
            "byteOffset" : 23628,
            "target" : 34962
        },
        {
            "buffer" : 0,
            "byteLength" : 23628,
            "byteOffset" : 39380,
            "target" : 34962
        },
        {
            "buffer" : 0,
            "byteLength" : 8742,
            "byteOffset" : 63008,
            "target" : 34963
        },
        {
            "buffer" : 0,
            "byteLength" : 3888,
            "byteOffset" : 71752,
            "target" : 34962
        },
        {
            "buffer" : 0,
            "byteLength" : 2592,
            "byteOffset" : 75640,
            "target" : 34962
        },
        {
            "buffer" : 0,
            "byteLength" : 3888,
            "byteOffset" : 78232,
            "target" : 34962
        },
        {
            "buffer" : 0,
            "byteLength" : 2592,
            "byteOffset" : 82120,
            "target" : 34963
        },
        {
            "buffer" : 0,
            "byteLength" : 23628,
            "byteOffset" : 84712,
            "target" : 34962
        },
        {
            "buffer" : 0,
            "byteLength" : 15752,
            "byteOffset" : 108340,
            "target" : 34962
        },
        {
            "buffer" : 0,
            "byteLength" : 23628,
            "byteOffset" : 124092,
            "target" : 34962
        },
        {
            "buffer" : 0,
            "byteLength" : 8742,
            "byteOffset" : 147720,
            "target" : 34963
        },
        {
            "buffer" : 0,
            "byteLength" : 3888,
            "byteOffset" : 156464,
            "target" : 34962
        },
        {
            "buffer" : 0,
            "byteLength" : 2592,
            "byteOffset" : 160352,
            "target" : 34962
        },
        {
            "buffer" : 0,
            "byteLength" : 3888,
            "byteOffset" : 162944,
            "target" : 34962
        },
        {
            "buffer" : 0,
            "byteLength" : 23676,
            "byteOffset" : 166832,
            "target" : 34962
        },
        {
            "buffer" : 0,
            "byteLength" : 15784,
            "byteOffset" : 190508,
            "target" : 34962
        },
        {
            "buffer" : 0,
            "byteLength" : 23676,
            "byteOffset" : 206292,
            "target" : 34962
        },
        {
            "buffer" : 0,
            "byteLength" : 8742,
            "byteOffset" : 229968,
            "target" : 34963
        },
        {
            "buffer" : 0,
            "byteLength" : 4320,
            "byteOffset" : 238712,
            "target" : 34962
        },
        {
            "buffer" : 0,
            "byteLength" : 2880,
            "byteOffset" : 243032,
            "target" : 34962
        },
        {
            "buffer" : 0,
            "byteLength" : 4320,
            "byteOffset" : 245912,
            "target" : 34962
        },
        {
            "buffer" : 0,
            "byteLength" : 2592,
            "byteOffset" : 250232,
            "target" : 34963
        },
        {
            "buffer" : 0,
            "byteLength" : 23676,
            "byteOffset" : 252824,
            "target" : 34962
        },
        {
            "buffer" : 0,
            "byteLength" : 15784,
            "byteOffset" : 276500,
            "target" : 34962
        },
        {
            "buffer" : 0,
            "byteLength" : 23676,
            "byteOffset" : 292284,
            "target" : 34962
        },
        {
            "buffer" : 0,
            "byteLength" : 8742,
            "byteOffset" : 315960,
            "target" : 34963
        },
        {
            "buffer" : 0,
            "byteLength" : 4320,
            "byteOffset" : 324704,
            "target" : 34962
        },
        {
            "buffer" : 0,
            "byteLength" : 2880,
            "byteOffset" : 329024,
            "target" : 34962
        },
        {
            "buffer" : 0,
            "byteLength" : 4320,
            "byteOffset" : 331904,
            "target" : 34962
        },
        {
            "buffer" : 0,
            "byteLength" : 474228,
            "byteOffset" : 336224,
            "target" : 34962
        },
        {
            "buffer" : 0,
            "byteLength" : 316152,
            "byteOffset" : 810452,
            "target" : 34962
        },
        {
            "buffer" : 0,
            "byteLength" : 316152,
            "byteOffset" : 1126604,
            "target" : 34962
        },
        {
            "buffer" : 0,
            "byteLength" : 474228,
            "byteOffset" : 1442756,
            "target" : 34962
        },
        {
            "buffer" : 0,
            "byteLength" : 343614,
            "byteOffset" : 1916984,
            "target" : 34963
        },
        {
            "buffer" : 0,
            "byteLength" : 155784,
            "byteOffset" : 2260600,
            "target" : 34962
        },
        {
            "buffer" : 0,
            "byteLength" : 103856,
            "byteOffset" : 2416384,
            "target" : 34962
        },
        {
            "buffer" : 0,
            "byteLength" : 103856,
            "byteOffset" : 2520240,
            "target" : 34962
        },
        {
            "buffer" : 0,
            "byteLength" : 155784,
            "byteOffset" : 2624096,
            "target" : 34962
        },
        {
            "buffer" : 0,
            "byteLength" : 120312,
            "byteOffset" : 2779880,
            "target" : 34963
        },
        {
            "buffer" : 0,
            "byteLength" : 21432,
            "byteOffset" : 2900192,
            "target" : 34962
        },
        {
            "buffer" : 0,
            "byteLength" : 14288,
            "byteOffset" : 2921624,
            "target" : 34962
        },
        {
            "buffer" : 0,
            "byteLength" : 14288,
            "byteOffset" : 2935912,
            "target" : 34962
        },
        {
            "buffer" : 0,
            "byteLength" : 21432,
            "byteOffset" : 2950200,
            "target" : 34962
        },
        {
            "buffer" : 0,
            "byteLength" : 17364,
            "byteOffset" : 2971632,
            "target" : 34963
        }
    ],
    "buffers" : [
        {
            "byteLength" : 2988996,
            "uri" : "data:application/octet-stream;base64,"
        }
    ]
}
